<svg width="230" height="272" viewBox="0 0 230 272" fill="none" xmlns="http://www.w3.org/2000/svg">
<g clip-path="url(#clip0_368_1380)">
<path d="M27.2405 145.289C42.285 145.289 54.481 133.099 54.481 118.062C54.481 103.025 42.285 90.8352 27.2405 90.8352C12.196 90.8352 0 103.025 0 118.062C0 133.099 12.196 145.289 27.2405 145.289Z" fill="#F5F5F6"/>
<path d="M201.88 145.289C216.925 145.289 229.121 133.099 229.121 118.062C229.121 103.025 216.925 90.8352 201.88 90.8352C186.836 90.8352 174.64 103.025 174.64 118.062C174.64 133.099 186.836 145.289 201.88 145.289Z" fill="#F5F5F6"/>
<path d="M59.1766 227.696C65.46 229.536 69.1505 229.909 74.6982 229.909C90.2199 229.909 95.3938 221.064 95.3938 202.642V0H140.476V207.795C140.476 246.48 118.303 271.534 78.7685 271.534C70.2719 271.534 63.6206 270.794 51.7954 267.482L59.1884 227.69L59.1766 227.696Z" fill="#F5F5F6"/>
</g>
<defs>
<clipPath id="clip0_368_1380">
<rect width="230" height="272" fill="white"/>
</clipPath>
</defs>
</svg>
