<svg width="1690" height="615" viewBox="0 0 1690 615" fill="none" xmlns="http://www.w3.org/2000/svg">
<g clip-path="url(#clip0_368_1396)">
<path d="M1000.6 401.47C1025.99 401.47 1046.58 380.884 1046.58 355.49C1046.58 330.096 1025.99 309.51 1000.6 309.51C975.206 309.51 954.62 330.096 954.62 355.49C954.62 380.884 975.206 401.47 1000.6 401.47Z" fill="#F5F5F6"/>
<path d="M1295.38 401.47C1320.77 401.47 1341.36 380.884 1341.36 355.49C1341.36 330.096 1320.77 309.51 1295.38 309.51C1269.99 309.51 1249.4 330.096 1249.4 355.49C1249.4 380.884 1269.99 401.47 1295.38 401.47Z" fill="#F5F5F6"/>
<path d="M0 463.34V0H75.36V463.34H0Z" fill="#F5F5F6"/>
<path d="M137.01 309.52C137.01 212.99 199.91 146.35 290.21 146.35C380.51 146.35 440.92 208 440.92 303.91V326.95L209.25 327.57C214.85 381.75 243.5 409.15 293.95 409.15C335.68 409.15 363.08 392.96 371.8 363.69H442.17C429.09 430.95 373.04 471.43 292.7 471.43C201.15 471.43 137.01 404.79 137.01 309.51V309.52ZM211.11 279H365.56C365.56 236.65 336.29 208.63 290.83 208.63C245.37 208.63 218.59 232.92 211.12 279H211.11Z" fill="#F5F5F6"/>
<path d="M457.11 155.69H536.2L576.68 287.72C583.53 312.01 589.76 338.79 595.36 367.43C600.96 337.54 606.57 318.23 616.53 287.72L658.88 155.69H736.1L777.2 287.72C780.94 300.18 793.39 346.26 797.13 366.81C802.11 343.77 812.08 307.02 817.68 287.72L858.78 155.69H939.12L832.63 463.34H761.63L719.28 330.07C706.82 289.59 699.97 260.32 697.48 244.75C694.37 259.07 688.76 280.87 673.19 331.32L630.84 463.35H556.73L457.09 155.7L457.11 155.69Z" fill="#F5F5F6"/>
<path d="M1054.81 540.57C1065.4 543.68 1071.62 544.31 1080.97 544.31C1107.13 544.31 1115.85 529.36 1115.85 498.22V155.69H1191.83V506.93C1191.83 572.32 1154.46 614.67 1087.83 614.67C1073.51 614.67 1062.3 613.42 1042.37 607.82L1054.83 540.56L1054.81 540.57Z" fill="#F5F5F6"/>
<path d="M1539.43 146.35C1623.5 146.35 1680.8 193.06 1688.9 267.17H1612.92C1604.2 232.29 1578.67 214.23 1542.55 214.23C1493.97 214.23 1461.59 250.97 1461.59 308.89C1461.59 366.81 1491.48 402.93 1540.06 402.93C1578.05 402.93 1604.83 384.25 1612.92 350.62H1689.52C1680.18 422.24 1620.39 471.44 1540.05 471.44C1446.63 471.44 1385.6 406.67 1385.6 308.9C1385.6 211.13 1448.5 146.36 1539.42 146.36L1539.43 146.35Z" fill="#F5F5F6"/>
</g>
<defs>
<clipPath id="clip0_368_1396">
<rect width="1689.52" height="614.68" fill="white"/>
</clipPath>
</defs>
</svg>
